<?xml version="1.0" encoding="UTF-8" standalone="no"?>
<svg
   height="24"
   viewBox="0 -960 960 960"
   width="24"
   version="1.1"
   id="svg1"
   sodipodi:docname="profile_pic.svg"
   inkscape:version="1.3.2 (091e20e, 2023-11-25, custom)"
   xmlns:inkscape="http://www.inkscape.org/namespaces/inkscape"
   xmlns:sodipodi="http://sodipodi.sourceforge.net/DTD/sodipodi-0.dtd"
   xmlns="http://www.w3.org/2000/svg"
   xmlns:svg="http://www.w3.org/2000/svg">
  <defs
     id="defs1" />
  <sodipodi:namedview
     id="namedview1"
     pagecolor="#ffffff"
     bordercolor="#000000"
     borderopacity="0.25"
     inkscape:showpageshadow="2"
     inkscape:pageopacity="0.0"
     inkscape:pagecheckerboard="0"
     inkscape:deskcolor="#d1d1d1"
     inkscape:zoom="20.5"
     inkscape:cx="12"
     inkscape:cy="12"
     inkscape:window-width="1366"
     inkscape:window-height="705"
     inkscape:window-x="-8"
     inkscape:window-y="-8"
     inkscape:window-maximized="1"
     inkscape:current-layer="svg1" />
  <path
     style="fill:#f5f5dc;stroke-width:1;fill-opacity:1"
     d="m 4.0335409,18.304878 0.015917,-1.695122 0.1298827,-0.356429 c 0.247585,-0.679432 0.7395031,-1.279882 1.3206965,-1.612081 0.4101306,-0.234424 1.4289622,-0.663179 2.1377394,-0.899626 2.8718345,-0.95804 5.9141325,-0.949544 8.8012475,0.02458 0.653016,0.220329 1.671872,0.652665 2.057418,0.873033 0.573251,0.327656 1.081301,0.948328 1.326433,1.620469 0.127122,0.348562 0.127735,0.357291 0.143584,2.045178 L 19.982377,20 H 12 4.0176235 Z M 18.023319,17.5 c -0.0011,-0.532798 -0.07056,-0.773768 -0.288247,-1.000647 -0.226896,-0.236473 -1.476856,-0.769009 -2.485528,-1.058941 -2.530276,-0.7273 -5.188151,-0.589551 -7.6641781,0.397209 -1.4388291,0.573411 -1.6097561,0.751054 -1.6097561,1.673007 V 18 H 12 18.02439 Z"
     id="path2"
     transform="matrix(40,0,0,40,0,-960)" />
  <path
     style="fill:#f5f5dc;fill-opacity:1;stroke-width:1"
     d="M 11.584029,11.943876 C 10.04015,11.826096 8.6112275,10.615913 8.1623873,9.04602 8.0036264,8.4907276 8.0036264,7.5092724 8.1623873,6.9539799 8.550174,5.5976319 9.6804518,4.4878851 11.02439,4.1439637 c 0.539177,-0.1379783 1.409976,-0.1382616 1.95122,-6.347e-4 1.340198,0.3407846 2.474276,1.4545142 2.862003,2.8106509 0.158761,0.5552926 0.158761,1.5367477 0,2.0920401 -0.290646,1.016582 -1.012087,1.922929 -1.951435,2.451589 -0.643877,0.36237 -1.422757,0.513354 -2.302149,0.446267 z M 12.868661,9.8341478 C 13.910783,9.3317576 14.318786,8.0769507 13.781658,7.0262383 13.628759,6.7271433 13.208929,6.3303816 12.868661,6.1634072 12.605017,6.0340334 12.544761,6.0243902 12,6.0243902 c -0.544761,0 -0.605017,0.00964 -0.868661,0.139017 -1.3806835,0.6775208 -1.5580463,2.5666724 -0.325889,3.4711587 0.399704,0.2934102 0.674482,0.3696341 1.267721,0.3516663 0.442166,-0.013391 0.550928,-0.034185 0.79549,-0.1520844 z"
     id="path3"
     transform="matrix(40,0,0,40,0,-960)" />
</svg>
