<?xml version="1.0" encoding="UTF-8" standalone="no"?>
<svg
   height="24"
   viewBox="0 -960 960 960"
   width="24"
   version="1.1"
   id="svg1"
   sodipodi:docname="shopping_cart.svg"
   inkscape:version="1.3.2 (091e20e, 2023-11-25, custom)"
   xmlns:inkscape="http://www.inkscape.org/namespaces/inkscape"
   xmlns:sodipodi="http://sodipodi.sourceforge.net/DTD/sodipodi-0.dtd"
   xmlns="http://www.w3.org/2000/svg"
   xmlns:svg="http://www.w3.org/2000/svg">
  <defs
     id="defs1" />
  <sodipodi:namedview
     id="namedview1"
     pagecolor="#ffffff"
     bordercolor="#000000"
     borderopacity="0.25"
     inkscape:showpageshadow="2"
     inkscape:pageopacity="0.0"
     inkscape:pagecheckerboard="0"
     inkscape:deskcolor="#d1d1d1"
     inkscape:zoom="20.5"
     inkscape:cx="12"
     inkscape:cy="12"
     inkscape:window-width="1366"
     inkscape:window-height="705"
     inkscape:window-x="-8"
     inkscape:window-y="-8"
     inkscape:window-maximized="1"
     inkscape:current-layer="svg1" />
  <path
     style="fill:#f5f5dc;stroke-width:1"
     d="M 6.4634146,21.90813 C 5.9585061,21.742721 5.4801513,21.334719 5.2271188,20.853659 5.0802667,20.574466 5.0731707,20.535118 5.0731707,20 c 0,-0.535118 0.0071,-0.574466 0.1539481,-0.853659 0.1962133,-0.373036 0.546186,-0.723009 0.9192227,-0.919222 C 6.4255337,18.080267 6.4648815,18.073171 7,18.073171 c 0.5351185,0 0.5744663,0.0071 0.8536585,0.153948 0.1609756,0.08467 0.3990161,0.260281 0.5289788,0.390244 0.1299627,0.129962 0.3055725,0.368003 0.3902439,0.528978 0.1468521,0.279193 0.1539481,0.318541 0.1539481,0.853659 0,0.535118 -0.0071,0.574466 -0.1539481,0.853659 -0.1972419,0.374992 -0.5480725,0.724753 -0.9192227,0.916419 -0.2613704,0.134975 -0.3448705,0.152582 -0.7804878,0.164574 -0.2682927,0.0074 -0.5426829,-0.0045 -0.6097561,-0.02652 z"
     id="path2"
     transform="matrix(40,0,0,40,0,-960)" />
  <path
     style="fill:#f5f5dc;stroke-width:1"
     d="M 16.463415,21.90813 C 15.958506,21.742721 15.480151,21.334719 15.227119,20.853659 15.080267,20.574466 15.073171,20.535118 15.073171,20 c 0,-0.535118 0.0071,-0.574466 0.153948,-0.853659 0.196213,-0.373036 0.546186,-0.723009 0.919222,-0.919222 0.279193,-0.146852 0.318541,-0.153948 0.853659,-0.153948 0.535118,0 0.574466,0.0071 0.853659,0.153948 0.160975,0.08467 0.399016,0.260281 0.528978,0.390244 0.129963,0.129962 0.305573,0.368003 0.390244,0.528978 0.146852,0.279193 0.153948,0.318541 0.153948,0.853659 0,0.535118 -0.0071,0.574466 -0.153948,0.853659 -0.197242,0.374992 -0.548072,0.724753 -0.919222,0.916419 -0.261371,0.134975 -0.344871,0.152582 -0.780488,0.164574 -0.268293,0.0074 -0.542683,-0.0045 -0.609756,-0.02652 z"
     id="path3"
     transform="matrix(40,0,0,40,0,-960)" />
  <path
     style="fill:#f5f5dc;stroke-width:1"
     d="m 6.4524854,16.903454 c -0.8480911,-0.233447 -1.5322607,-1.217028 -1.4331471,-2.06033 0.043456,-0.369741 0.1167947,-0.528716 0.8932344,-1.93625 0.3834507,-0.695122 0.6971834,-1.283952 0.6971834,-1.30851 0,-0.02456 -0.8048888,-1.7442362 -1.7886422,-3.8215074 L 3.0324717,4 H 2.0162358 1 V 3 2 H 2.6223835 4.244767 L 6.3690727,6.5 8.4933785,11 h 3.5319935 3.531994 L 17.5078,7.5 19.458234,4 h 1.093175 c 0.926471,0 1.089105,0.010608 1.066482,0.069563 -0.01468,0.03826 -1.013854,1.854723 -2.220384,4.0365854 -1.379082,2.4939036 -2.270699,4.0546916 -2.401071,4.2031116 -0.223696,0.254663 -0.475047,0.432013 -0.794692,0.560724 -0.180622,0.07273 -0.617031,0.08379 -4.168269,0.105626 L 8.0669498,13 7.5334746,13.970148 C 7.2400634,14.503729 7,14.959217 7,14.982343 c 0,0.02332 2.6730727,0.04205 6,0.04205 h 6 V 16 16.97561 l -6.158537,-0.0044 C 7.9488888,16.96771 6.6355566,16.95381 6.4524854,16.90342 Z"
     id="path4"
     transform="matrix(40,0,0,40,0,-960)" />
</svg>
